<mxfile host="app.diagrams.net" modified="2024-05-06T13:36:04.994Z" agent="Mozilla/5.0 (Windows NT 10.0; Win64; x64) AppleWebKit/537.36 (KHTML, like Gecko) Chrome/124.0.0.0 Safari/537.36 Edg/124.0.0.0" etag="dziOIdnGAU1kzfTgakIz" version="24.3.1" type="github">
  <diagram name="第 1 页" id="Z9aRa_Nh8sJpH3yCjOGh">
    <mxGraphModel dx="978" dy="526" grid="1" gridSize="10" guides="1" tooltips="1" connect="1" arrows="0" fold="1" page="1" pageScale="1" pageWidth="1169" pageHeight="827" background="none" math="0" shadow="0">
      <root>
        <mxCell id="0" />
        <mxCell id="1" parent="0" />
        <mxCell id="O8_phindwA2GBxoyrpSA-32" value="" style="rounded=1;whiteSpace=wrap;html=1;dashed=1;" vertex="1" parent="1">
          <mxGeometry x="320" y="240" width="680" height="280" as="geometry" />
        </mxCell>
        <mxCell id="O8_phindwA2GBxoyrpSA-21" value="" style="rounded=1;whiteSpace=wrap;html=1;dashed=1;" vertex="1" parent="1">
          <mxGeometry x="320" y="40" width="680" height="160" as="geometry" />
        </mxCell>
        <mxCell id="O8_phindwA2GBxoyrpSA-1" value="&lt;font style=&quot;font-size: 20px;&quot;&gt;original data&lt;/font&gt;" style="rounded=1;whiteSpace=wrap;html=1;rotation=0;fillColor=#ffe6cc;strokeColor=#d79b00;" vertex="1" parent="1">
          <mxGeometry x="110" y="230" width="160" height="72.78" as="geometry" />
        </mxCell>
        <mxCell id="O8_phindwA2GBxoyrpSA-3" value="" style="endArrow=classic;html=1;rounded=0;exitX=1;exitY=0.5;exitDx=0;exitDy=0;" edge="1" parent="1" source="O8_phindwA2GBxoyrpSA-1">
          <mxGeometry width="50" height="50" relative="1" as="geometry">
            <mxPoint x="280" y="120" as="sourcePoint" />
            <mxPoint x="370" y="119.5" as="targetPoint" />
            <Array as="points">
              <mxPoint x="280" y="266" />
              <mxPoint x="280" y="120" />
            </Array>
          </mxGeometry>
        </mxCell>
        <mxCell id="O8_phindwA2GBxoyrpSA-4" value="&lt;font style=&quot;font-size: 16px;&quot;&gt;Node Embedding&lt;/font&gt;" style="rounded=0;whiteSpace=wrap;html=1;fillColor=#d5e8d4;gradientColor=#97d077;strokeColor=#82b366;" vertex="1" parent="1">
          <mxGeometry x="370" y="90" width="120" height="60" as="geometry" />
        </mxCell>
        <mxCell id="O8_phindwA2GBxoyrpSA-5" value="" style="endArrow=classic;html=1;rounded=0;exitX=1;exitY=0.5;exitDx=0;exitDy=0;" edge="1" parent="1" source="O8_phindwA2GBxoyrpSA-1">
          <mxGeometry width="50" height="50" relative="1" as="geometry">
            <mxPoint x="280" y="319.5" as="sourcePoint" />
            <mxPoint x="370" y="319.5" as="targetPoint" />
            <Array as="points">
              <mxPoint x="280" y="266" />
              <mxPoint x="280" y="320" />
            </Array>
          </mxGeometry>
        </mxCell>
        <mxCell id="O8_phindwA2GBxoyrpSA-6" value="&lt;font style=&quot;font-size: 16px;&quot;&gt;Node Embedding&lt;/font&gt;" style="rounded=0;whiteSpace=wrap;html=1;fillColor=#dae8fc;gradientColor=#7ea6e0;strokeColor=#6c8ebf;" vertex="1" parent="1">
          <mxGeometry x="370" y="290" width="120" height="60" as="geometry" />
        </mxCell>
        <mxCell id="O8_phindwA2GBxoyrpSA-7" value="" style="endArrow=classic;html=1;rounded=0;exitX=1;exitY=0.5;exitDx=0;exitDy=0;" edge="1" parent="1" source="O8_phindwA2GBxoyrpSA-1">
          <mxGeometry width="50" height="50" relative="1" as="geometry">
            <mxPoint x="280" y="250" as="sourcePoint" />
            <mxPoint x="370" y="439.5" as="targetPoint" />
            <Array as="points">
              <mxPoint x="280" y="266" />
              <mxPoint x="280" y="440" />
            </Array>
          </mxGeometry>
        </mxCell>
        <mxCell id="O8_phindwA2GBxoyrpSA-8" value="&lt;font style=&quot;font-size: 16px;&quot;&gt;Node Embedding&lt;/font&gt;" style="rounded=0;whiteSpace=wrap;html=1;fillColor=#e6d0de;gradientColor=#d5739d;strokeColor=#996185;" vertex="1" parent="1">
          <mxGeometry x="370" y="410" width="120" height="60" as="geometry" />
        </mxCell>
        <mxCell id="O8_phindwA2GBxoyrpSA-9" value="" style="endArrow=classic;html=1;rounded=0;" edge="1" parent="1">
          <mxGeometry width="50" height="50" relative="1" as="geometry">
            <mxPoint x="490" y="119.5" as="sourcePoint" />
            <mxPoint x="530" y="120" as="targetPoint" />
            <Array as="points">
              <mxPoint x="530" y="119.5" />
            </Array>
          </mxGeometry>
        </mxCell>
        <mxCell id="O8_phindwA2GBxoyrpSA-10" value="&lt;font style=&quot;font-size: 16px;&quot;&gt;Graph&lt;/font&gt;&lt;div&gt;&lt;font style=&quot;font-size: 16px;&quot;&gt;Encoder&lt;/font&gt;&lt;/div&gt;" style="rounded=0;whiteSpace=wrap;html=1;fillColor=#d5e8d4;gradientColor=#97d077;strokeColor=#82b366;" vertex="1" parent="1">
          <mxGeometry x="530" y="90" width="120" height="60" as="geometry" />
        </mxCell>
        <mxCell id="O8_phindwA2GBxoyrpSA-11" value="" style="endArrow=classic;html=1;rounded=0;" edge="1" parent="1">
          <mxGeometry width="50" height="50" relative="1" as="geometry">
            <mxPoint x="490" y="319.5" as="sourcePoint" />
            <mxPoint x="530" y="320" as="targetPoint" />
            <Array as="points">
              <mxPoint x="530" y="319.5" />
            </Array>
          </mxGeometry>
        </mxCell>
        <mxCell id="O8_phindwA2GBxoyrpSA-12" value="&lt;font style=&quot;font-size: 16px;&quot;&gt;Graph&lt;/font&gt;&lt;div&gt;&lt;font style=&quot;font-size: 16px;&quot;&gt;Encoder&lt;/font&gt;&lt;/div&gt;" style="rounded=0;whiteSpace=wrap;html=1;fillColor=#dae8fc;gradientColor=#7ea6e0;strokeColor=#6c8ebf;" vertex="1" parent="1">
          <mxGeometry x="530" y="290" width="120" height="60" as="geometry" />
        </mxCell>
        <mxCell id="O8_phindwA2GBxoyrpSA-13" value="" style="endArrow=classic;html=1;rounded=0;" edge="1" parent="1">
          <mxGeometry width="50" height="50" relative="1" as="geometry">
            <mxPoint x="490" y="439.5" as="sourcePoint" />
            <mxPoint x="530" y="440" as="targetPoint" />
            <Array as="points">
              <mxPoint x="530" y="439.5" />
            </Array>
          </mxGeometry>
        </mxCell>
        <mxCell id="O8_phindwA2GBxoyrpSA-14" value="&lt;font style=&quot;font-size: 16px;&quot;&gt;Graph&lt;/font&gt;&lt;div&gt;&lt;font style=&quot;font-size: 16px;&quot;&gt;Encoder&lt;/font&gt;&lt;/div&gt;" style="rounded=0;whiteSpace=wrap;html=1;fillColor=#e6d0de;gradientColor=#d5739d;strokeColor=#996185;" vertex="1" parent="1">
          <mxGeometry x="530" y="410" width="120" height="60" as="geometry" />
        </mxCell>
        <mxCell id="O8_phindwA2GBxoyrpSA-15" value="" style="endArrow=classic;html=1;rounded=0;" edge="1" parent="1">
          <mxGeometry width="50" height="50" relative="1" as="geometry">
            <mxPoint x="650" y="119.5" as="sourcePoint" />
            <mxPoint x="690" y="120" as="targetPoint" />
            <Array as="points">
              <mxPoint x="690" y="119.5" />
            </Array>
          </mxGeometry>
        </mxCell>
        <mxCell id="O8_phindwA2GBxoyrpSA-16" value="&lt;span style=&quot;font-size: 16px;&quot;&gt;Final Embedding&lt;/span&gt;" style="rounded=0;whiteSpace=wrap;html=1;fillColor=#d5e8d4;gradientColor=#97d077;strokeColor=#82b366;" vertex="1" parent="1">
          <mxGeometry x="690" y="90" width="120" height="60" as="geometry" />
        </mxCell>
        <mxCell id="O8_phindwA2GBxoyrpSA-17" value="" style="endArrow=classic;html=1;rounded=0;entryX=0;entryY=0.5;entryDx=0;entryDy=0;" edge="1" parent="1" target="O8_phindwA2GBxoyrpSA-18">
          <mxGeometry width="50" height="50" relative="1" as="geometry">
            <mxPoint x="810" y="119.5" as="sourcePoint" />
            <mxPoint x="850" y="120" as="targetPoint" />
            <Array as="points">
              <mxPoint x="850" y="119.5" />
            </Array>
          </mxGeometry>
        </mxCell>
        <mxCell id="O8_phindwA2GBxoyrpSA-18" value="" style="ellipse;whiteSpace=wrap;html=1;aspect=fixed;fillColor=#d5e8d4;strokeColor=#82b366;gradientColor=#97d077;" vertex="1" parent="1">
          <mxGeometry x="870" y="107.5" width="25" height="25" as="geometry" />
        </mxCell>
        <mxCell id="O8_phindwA2GBxoyrpSA-19" value="&lt;font style=&quot;font-size: 14px;&quot;&gt;Recommended Tasks Loss&lt;/font&gt;" style="text;html=1;align=center;verticalAlign=middle;whiteSpace=wrap;rounded=0;" vertex="1" parent="1">
          <mxGeometry x="897" y="107.5" width="100" height="30" as="geometry" />
        </mxCell>
        <mxCell id="O8_phindwA2GBxoyrpSA-22" value="Recommendation" style="text;html=1;align=center;verticalAlign=middle;whiteSpace=wrap;rounded=0;fontStyle=1;fontSize=14;" vertex="1" parent="1">
          <mxGeometry x="610" y="40" width="60" height="30" as="geometry" />
        </mxCell>
        <mxCell id="O8_phindwA2GBxoyrpSA-23" value="" style="endArrow=classic;html=1;rounded=0;" edge="1" parent="1">
          <mxGeometry width="50" height="50" relative="1" as="geometry">
            <mxPoint x="650" y="319.5" as="sourcePoint" />
            <mxPoint x="690" y="320" as="targetPoint" />
            <Array as="points">
              <mxPoint x="690" y="319.5" />
            </Array>
          </mxGeometry>
        </mxCell>
        <mxCell id="O8_phindwA2GBxoyrpSA-27" style="edgeStyle=orthogonalEdgeStyle;rounded=0;orthogonalLoop=1;jettySize=auto;html=1;exitX=1;exitY=0.5;exitDx=0;exitDy=0;entryX=0.5;entryY=0;entryDx=0;entryDy=0;" edge="1" parent="1" source="O8_phindwA2GBxoyrpSA-24" target="O8_phindwA2GBxoyrpSA-29">
          <mxGeometry relative="1" as="geometry">
            <mxPoint x="880" y="360" as="targetPoint" />
          </mxGeometry>
        </mxCell>
        <mxCell id="O8_phindwA2GBxoyrpSA-24" value="&lt;span style=&quot;font-size: 16px;&quot;&gt;Enhanced Embedding(1)&lt;/span&gt;" style="rounded=0;whiteSpace=wrap;html=1;fillColor=#dae8fc;gradientColor=#7ea6e0;strokeColor=#6c8ebf;" vertex="1" parent="1">
          <mxGeometry x="690" y="290" width="120" height="60" as="geometry" />
        </mxCell>
        <mxCell id="O8_phindwA2GBxoyrpSA-25" value="" style="endArrow=classic;html=1;rounded=0;" edge="1" parent="1">
          <mxGeometry width="50" height="50" relative="1" as="geometry">
            <mxPoint x="650" y="439.5" as="sourcePoint" />
            <mxPoint x="690" y="440" as="targetPoint" />
            <Array as="points">
              <mxPoint x="690" y="439.5" />
            </Array>
          </mxGeometry>
        </mxCell>
        <mxCell id="O8_phindwA2GBxoyrpSA-28" style="edgeStyle=orthogonalEdgeStyle;rounded=0;orthogonalLoop=1;jettySize=auto;html=1;exitX=1;exitY=0.5;exitDx=0;exitDy=0;entryX=0.5;entryY=1;entryDx=0;entryDy=0;" edge="1" parent="1" source="O8_phindwA2GBxoyrpSA-26" target="O8_phindwA2GBxoyrpSA-29">
          <mxGeometry relative="1" as="geometry">
            <mxPoint x="880" y="400" as="targetPoint" />
          </mxGeometry>
        </mxCell>
        <mxCell id="O8_phindwA2GBxoyrpSA-26" value="&lt;span style=&quot;font-size: 16px;&quot;&gt;Enhanced Embedding(2)&lt;/span&gt;" style="rounded=0;whiteSpace=wrap;html=1;fillColor=#e6d0de;gradientColor=#d5739d;strokeColor=#996185;" vertex="1" parent="1">
          <mxGeometry x="690" y="410" width="120" height="60" as="geometry" />
        </mxCell>
        <mxCell id="O8_phindwA2GBxoyrpSA-29" value="" style="ellipse;whiteSpace=wrap;html=1;aspect=fixed;fillColor=#d5e8d4;strokeColor=#82b366;gradientColor=#97d077;" vertex="1" parent="1">
          <mxGeometry x="867.5" y="367.5" width="27.5" height="27.5" as="geometry" />
        </mxCell>
        <mxCell id="O8_phindwA2GBxoyrpSA-30" value="&lt;font style=&quot;font-size: 14px;&quot;&gt;Comparative Tasks Loss&lt;/font&gt;" style="text;html=1;align=center;verticalAlign=middle;whiteSpace=wrap;rounded=0;" vertex="1" parent="1">
          <mxGeometry x="880" y="366.25" width="117" height="30" as="geometry" />
        </mxCell>
        <mxCell id="O8_phindwA2GBxoyrpSA-33" value="&lt;span style=&quot;font-size: 14px;&quot;&gt;Comparative Tasks&lt;/span&gt;" style="text;html=1;align=center;verticalAlign=middle;whiteSpace=wrap;rounded=0;fontStyle=1;fontSize=14;" vertex="1" parent="1">
          <mxGeometry x="560" y="240" width="160" height="30" as="geometry" />
        </mxCell>
      </root>
    </mxGraphModel>
  </diagram>
</mxfile>
